<svg width="30" height="30" viewBox="0 0 30 30" fill="none" xmlns="http://www.w3.org/2000/svg">
<g clip-path="url(#clip0)">
<path d="M24.9995 9.66699H19V8.33366H25V9.66699H24.9995ZM14.4294 15.7584C14.8098 16.3486 15 17.0654 15 17.9068C15 18.777 14.7857 19.5576 14.3496 20.2471C14.0722 20.7034 13.7277 21.0888 13.3138 21.3991C12.8477 21.7579 12.2959 22.0039 11.6615 22.1354C11.025 22.2671 10.3361 22.3337 9.59408 22.3337H3V7.66699H10.0711C11.8535 7.69603 13.1171 8.2133 13.8633 9.22917C14.311 9.85221 14.5329 10.5998 14.5329 11.4688C14.5329 12.3655 14.3084 13.083 13.8563 13.6281C13.6048 13.9337 13.2332 14.2117 12.7414 14.4626C13.4863 14.7358 14.0516 15.166 14.4294 15.7584ZM6.33333 13.667H9.48682C10.1349 13.667 10.6589 13.5421 11.0623 13.2925C11.4656 13.0432 11.6667 12.6001 11.6667 11.9639C11.6667 11.2611 11.4003 10.7945 10.8662 10.57C10.4072 10.414 9.8198 10.3337 9.1071 10.3337H6.33333V13.667ZM11.6667 17.5293C11.6667 16.7496 11.3673 16.2106 10.7699 15.9214C10.4357 15.757 9.96432 15.673 9.35986 15.667H6.33333V19.667H9.31299C9.92513 19.667 10.399 19.5817 10.7409 19.4037C11.3575 19.0765 11.6667 18.4538 11.6667 17.5293ZM26.9045 15.291C26.9775 15.7789 27.0105 16.4867 26.9971 17.4119H19.1662C19.2094 18.4854 19.5825 19.2361 20.2902 19.6657C20.717 19.9351 21.2344 20.0667 21.8403 20.0667C22.4793 20.0667 23 19.9062 23.4009 19.5765C23.6193 19.4017 23.8119 19.155 23.9785 18.8437H26.8488C26.7736 19.4777 26.428 20.1207 25.807 20.7742C24.8447 21.8128 23.4952 22.3337 21.762 22.3337C20.3303 22.3337 19.0684 21.8944 17.9731 21.0191C16.8815 20.1408 16.3333 18.7163 16.3333 16.7402C16.3333 14.8872 16.8256 13.4689 17.8133 12.4817C18.8047 11.4926 20.0839 11.0003 21.661 11.0003C22.5957 11.0003 23.4384 11.1663 24.1901 11.4998C24.9395 11.8338 25.5588 12.3593 26.0465 13.0815C26.488 13.7176 26.772 14.4532 26.9045 15.291ZM24.3333 15.6669C24.2827 15.0119 24.0423 14.5162 23.6095 14.1773C23.1804 13.8376 22.6443 13.667 22.0046 13.667C21.3083 13.667 20.7707 13.8493 20.3887 14.2077C20.0041 14.5653 19.7647 15.0514 19.6667 15.667H24.3333V15.6669Z" fill="white"/>
</g>
<defs>
<clipPath id="clip0">
<rect width="24" height="14.6667" fill="white" transform="translate(3 7.66699)"/>
</clipPath>
</defs>
</svg>
