<svg width="30" height="30" viewBox="0 0 30 30" fill="none" xmlns="http://www.w3.org/2000/svg">
<path d="M15 3C8.375 3 3 8.375 3 15C3 21.6312 8.375 27 15 27C21.625 27 27 21.6312 27 15C27 8.375 21.625 3 15 3ZM22.6187 8.53125C23.9687 10.1187 24.825 12.1313 24.975 14.3375C22.8125 14.225 20.225 14.225 18.15 14.4188C17.8875 13.7563 17.6188 13.1062 17.325 12.4812C19.7188 11.4437 21.5625 10.0812 22.6187 8.53125ZM15 5C17.425 5 19.65 5.8625 21.3812 7.3C20.2937 8.675 18.5875 9.86875 16.4625 10.775C15.3 8.625 13.9625 6.775 12.5375 5.31875C13.3312 5.11875 14.15 5 15 5ZM10.475 6.09375C11.9187 7.53125 13.275 9.3625 14.4625 11.5062C12.2063 12.1937 9.61875 12.5875 6.85625 12.5875C6.33125 12.5875 5.81875 12.5687 5.3125 12.5375C6.03125 9.71875 7.9375 7.38125 10.475 6.09375ZM5.01875 14.525C5.5875 14.55 6.1625 14.5625 6.74375 14.5563C9.89375 14.5188 12.825 14.025 15.3438 13.2188C15.5813 13.7125 15.8063 14.2187 16.0188 14.7375C15.675 14.8187 15.3687 14.9062 15.125 15.0062C11.6812 16.45 8.96875 18.7812 7.5 21.6C5.95 19.8375 5 17.5312 5 15C5 14.8375 5.00625 14.6813 5.01875 14.525ZM15 25C12.6875 25 10.5625 24.2125 8.86875 22.8937C10.2 20.2562 12.575 18.075 15.5687 16.7187C15.85 16.5875 16.225 16.4813 16.6563 16.3875C17.0125 17.375 17.3313 18.4 17.6125 19.4625C18.0438 21.1188 18.35 22.7563 18.5375 24.3438C17.4375 24.7625 16.25 25 15 25ZM20.4063 23.4063C20.2188 21.8 19.9125 20.15 19.475 18.475C19.2625 17.6625 19.0187 16.875 18.7562 16.1063C20.7187 15.9438 23.0688 15.9688 24.9375 16.1063C24.6 19.175 22.875 21.8125 20.4063 23.4063Z" fill="white"/>
</svg>
