<svg width="30" height="30" viewBox="0 0 30 30" fill="none" xmlns="http://www.w3.org/2000/svg">
<path d="M10.425 23V12.3062H6.99377V23H10.425ZM8.83752 10.6875C9.98127 10.6875 10.6938 9.86875 10.6938 8.84375C10.675 7.8 9.98127 7 8.85627 7C7.73127 7 7.00002 7.8 7.00002 8.84375C7.00002 9.86875 7.71252 10.6875 8.81252 10.6875H8.83752Z" fill="white"/>
<path d="M19.0375 12.0625C17.2188 12.0625 16.4375 13.0875 15.9375 13.8V12.3125H12.5V23H15.9375V16.9125C15.9375 16.6 15.9625 16.2875 16.0563 16.0687C16.3063 15.4437 16.8688 14.8 17.8188 14.8C19.0625 14.8 19.5625 15.7562 19.5625 17.1562V23H23V16.7562C23 13.55 21.3 12.0625 19.0375 12.0625Z" fill="white"/>
<path d="M25.075 3H5.05C3.95625 3 3 3.7875 3 4.86875V24.9375C3 26.025 3.95625 26.9938 5.05 26.9938H25.0687C26.1687 26.9938 26.9938 26.0187 26.9938 24.9375V4.86875C27 3.7875 26.1688 3 25.075 3ZM24.875 25C24.8062 25 5.30625 25 5.19375 25C5.08125 25 5 24.9125 5 24.8063C5 24.7 5 5.19375 5 5.125C5 5.05625 5.0625 5 5.125 5C5.1875 5 24.8125 5 24.875 5C24.9375 5 25 5.0625 25 5.125C25 6.58125 25 24.8062 25 24.875C25 24.9312 24.9437 25 24.875 25Z" fill="white"/>
</svg>
