<svg width="30" height="30" viewBox="0 0 30 30" fill="none" xmlns="http://www.w3.org/2000/svg">
<path d="M15 3C8.371 3 3 8.371 3 15C3 21.629 8.371 27 15 27C21.629 27 27 21.629 27 15C27 8.371 21.629 3 15 3ZM15 5C16.3147 4.99471 17.6174 5.24976 18.8331 5.75043C20.0487 6.2511 21.1532 6.9875 22.0829 7.91714C23.0125 8.84678 23.7489 9.95127 24.2496 11.1669C24.7502 12.3826 25.0053 13.6853 25 15C25.0053 16.3147 24.7502 17.6174 24.2496 18.8331C23.7489 20.0487 23.0125 21.1532 22.0829 22.0829C21.1532 23.0125 20.0487 23.7489 18.8331 24.2496C17.6174 24.7502 16.3147 25.0053 15 25C13.6853 25.0053 12.3826 24.7502 11.1669 24.2496C9.95127 23.7489 8.84678 23.0125 7.91714 22.0829C6.9875 21.1532 6.2511 20.0487 5.75043 18.8331C5.24976 17.6174 4.99471 16.3147 5 15C4.99471 13.6853 5.24976 12.3826 5.75043 11.1669C6.2511 9.95127 6.9875 8.84678 7.91714 7.91714C8.84678 6.9875 9.95127 6.2511 11.1669 5.75043C12.3826 5.24976 13.6853 4.99471 15 5V5ZM13.406 9.75C11.461 9.75 9.766 9.93 8.156 10.438C7.73 10.523 7.375 10.844 7.375 11.438C7.375 12.031 7.813 12.555 8.406 12.468C8.66 12.468 8.832 12.375 9 12.375C10.355 12.035 11.883 11.875 13.406 11.875C16.367 11.875 19.406 12.535 21.437 13.719C21.691 13.805 21.777 13.906 22.031 13.906C22.625 13.906 23.039 13.469 23.125 12.875C23.125 12.367 22.871 12.043 22.531 11.875C19.992 10.437 16.621 9.75 13.406 9.75V9.75ZM13.125 13.469C11.348 13.469 10.082 13.723 8.812 14.063C8.391 14.23 8.156 14.493 8.156 15C8.156 15.422 8.492 15.844 9 15.844C9.172 15.844 9.246 15.836 9.5 15.75C10.43 15.496 11.707 15.344 13.063 15.344C15.855 15.344 18.285 16.024 20.063 17.125C20.23 17.211 20.403 17.281 20.656 17.281C21.164 17.281 21.5 16.851 21.5 16.344C21.5 16.004 21.34 15.668 21 15.5C18.8 14.145 16.004 13.469 13.125 13.469V13.469ZM13.406 17.125C11.969 17.125 10.606 17.285 9.25 17.625C8.91 17.711 8.656 17.953 8.656 18.375C8.656 18.715 8.922 19.063 9.344 19.063C9.43 19.063 9.676 18.969 9.844 18.969C10.9814 18.7038 12.1451 18.5672 13.313 18.562C15.426 18.562 17.359 19.07 18.969 20C19.141 20.086 19.332 20.156 19.5 20.156C19.84 20.156 20.164 19.902 20.25 19.563C20.25 19.137 20.066 18.98 19.812 18.813C17.949 17.711 15.773 17.125 13.406 17.125V17.125Z" fill="#FEFEFE"/>
</svg>
